<?xml version="1.0" encoding="iso-8859-1"?>
<!-- Generator: Adobe Illustrator 19.0.0, SVG Export Plug-In . SVG Version: 6.00 Build 0)  -->
<svg version="1.1" id="Capa_1" xmlns="http://www.w3.org/2000/svg" xmlns:xlink="http://www.w3.org/1999/xlink" x="0px" y="0px"
	 viewBox="0 0 52.424 52.424" style="enable-background:new 0 0 52.424 52.424;" xml:space="preserve">
<g>
	<g>
		<path d="M16.898,52.424c-0.705,0-1.387-0.052-2.034-0.158c-2.579-0.421-4.353-1.644-4.994-3.441
			c-0.641-1.796-0.041-3.865,1.688-5.824c1.589-1.799,3.983-3.332,6.744-4.317c2.067-0.737,4.194-1.114,6.13-1.083
			c0.553,0.008,0.993,0.462,0.985,1.015c-0.008,0.552-0.492,0.955-1.015,0.985c-1.724-0.026-3.587,0.31-5.429,0.966
			c-2.447,0.873-4.548,2.207-5.916,3.757c-1.209,1.369-1.685,2.764-1.305,3.829c0.38,1.064,1.631,1.844,3.434,2.139
			c2.038,0.334,4.51,0.037,6.958-0.837c3.552-1.267,6.404-3.571,7.164-5.771L29.309,6.599c0-0.382,0.218-0.732,0.562-0.899
			l11.495-5.6c0.311-0.15,0.674-0.13,0.968,0.051c0.292,0.183,0.47,0.503,0.47,0.848v8.714c0,0.358-0.192,0.689-0.503,0.868
			l-6.919,3.962c-0.482,0.275-1.09,0.108-1.365-0.371c-0.274-0.479-0.108-1.09,0.371-1.365l6.416-3.674V2.599l-9.495,4.625
			l0.001,36.619c0,0.1-0.015,0.198-0.044,0.293c-0.877,2.857-4.193,5.684-8.448,7.202C20.811,52.054,18.772,52.424,16.898,52.424z"
			/>
	</g>
</g>
<g>
</g>
<g>
</g>
<g>
</g>
<g>
</g>
<g>
</g>
<g>
</g>
<g>
</g>
<g>
</g>
<g>
</g>
<g>
</g>
<g>
</g>
<g>
</g>
<g>
</g>
<g>
</g>
<g>
</g>
</svg>
